<?xml version="1.0" encoding="UTF-8" standalone="no"?>
<!DOCTYPE svg PUBLIC "-//W3C//DTD SVG 1.1//EN"
 "http://www.w3.org/Graphics/SVG/1.1/DTD/svg11.dtd">
<!-- Generated by graphviz version 8.0.5 (0)
 -->
<!-- Title: dependencies Pages: 1 -->
<svg width="272pt" height="138pt"
 viewBox="0.00 0.00 271.75 138.00" xmlns="http://www.w3.org/2000/svg" xmlns:xlink="http://www.w3.org/1999/xlink">
<g id="graph0" class="graph" transform="scale(1 1) rotate(0) translate(4 134)">
<title>dependencies</title>
<polygon fill="white" stroke="none" points="-4,4 -4,-134 267.75,-134 267.75,4 -4,4"/>
<!-- FFI -->
<g id="node1" class="node">
<title>FFI</title>
<polygon fill="none" stroke="black" stroke-dasharray="5,2" points="68.12,-36 4.88,-36 4.88,0 68.12,0 68.12,-36"/>
<text text-anchor="middle" x="36.5" y="-12.95" font-family="Times,serif" font-size="14.00">Socket.v</text>
</g>
<!-- Echo -->
<g id="node3" class="node">
<title>Echo</title>
<polygon fill="none" stroke="black" points="164.25,-36 110,-36 110,0 164.25,0 164.25,-36"/>
<text text-anchor="middle" x="137.12" y="-12.95" font-family="Times,serif" font-size="14.00">Echo.v</text>
</g>
<!-- FFI&#45;&gt;Echo -->
<g id="edge3" class="edge">
<title>FFI&#45;&gt;Echo</title>
<path fill="none" stroke="black" d="M68.43,-18C78.04,-18 88.73,-18 98.72,-18"/>
<polygon fill="black" stroke="black" points="98.62,-21.5 108.62,-18 98.62,-14.5 98.62,-21.5"/>
</g>
<!-- ffi -->
<g id="node2" class="node">
<title>ffi</title>
<polygon fill="none" stroke="black" points="73,-130 0,-130 0,-94 73,-94 73,-130"/>
<text text-anchor="middle" x="36.5" y="-106.95" font-family="Times,serif" font-size="14.00">socket.mli</text>
</g>
<!-- ffi&#45;&gt;FFI -->
<g id="edge1" class="edge">
<title>ffi&#45;&gt;FFI</title>
<path fill="none" stroke="black" stroke-dasharray="5,2" d="M36.5,-93.61C36.5,-80.37 36.5,-62.23 36.5,-47.04"/>
<polygon fill="black" stroke="black" points="40,-47.12 36.5,-37.12 33,-47.12 40,-47.12"/>
<text text-anchor="middle" x="25.25" y="-59.95" font-family="Times,serif" font-size="14.00">coqffi &#160;&#160;&#160;&#160;&#160;</text>
</g>
<!-- echo_ml -->
<g id="node5" class="node">
<title>echo_ml</title>
<polygon fill="none" stroke="black" stroke-dasharray="5,2" points="263.75,-130 201.25,-130 201.25,-94 263.75,-94 263.75,-130"/>
<text text-anchor="middle" x="232.5" y="-106.95" font-family="Times,serif" font-size="14.00">main.ml</text>
</g>
<!-- ffi&#45;&gt;echo_ml -->
<g id="edge5" class="edge">
<title>ffi&#45;&gt;echo_ml</title>
<path fill="none" stroke="black" d="M73.08,-112C106.15,-112 155.39,-112 190.18,-112"/>
<polygon fill="black" stroke="black" points="189.93,-115.5 199.93,-112 189.93,-108.5 189.93,-115.5"/>
</g>
<!-- echo_v -->
<g id="node4" class="node">
<title>echo_v</title>
<polygon fill="none" stroke="black" points="259.62,-36 205.38,-36 205.38,0 259.62,0 259.62,-36"/>
<text text-anchor="middle" x="232.5" y="-12.95" font-family="Times,serif" font-size="14.00">main.v</text>
</g>
<!-- Echo&#45;&gt;echo_v -->
<g id="edge4" class="edge">
<title>Echo&#45;&gt;echo_v</title>
<path fill="none" stroke="black" d="M164.63,-18C173.8,-18 184.25,-18 194.12,-18"/>
<polygon fill="black" stroke="black" points="193.93,-21.5 203.93,-18 193.93,-14.5 193.93,-21.5"/>
</g>
<!-- echo_ml&#45;&gt;echo_v -->
<g id="edge2" class="edge">
<title>echo_ml&#45;&gt;echo_v</title>
<path fill="none" stroke="black" stroke-dasharray="5,2" d="M232.5,-82.66C232.5,-67.43 232.5,-49.3 232.5,-36.12"/>
<polygon fill="black" stroke="black" points="229,-82.61 232.5,-92.61 236,-82.61 229,-82.61"/>
<text text-anchor="middle" x="221.25" y="-59.95" font-family="Times,serif" font-size="14.00">coqc &#160;&#160;&#160;&#160;</text>
</g>
</g>
</svg>
