<svg version="1.1" xmlns="http://www.w3.org/2000/svg">
  <symbol id="external-link" viewBox="0 0 511.626 511.627">
    <path d="M392.857,292.354h-18.274c-2.669,0-4.859,0.855-6.563,2.573c-1.718,1.708-2.573,3.897-2.573,6.563v91.361
             c0,12.563-4.47,23.315-13.415,32.262c-8.945,8.945-19.701,13.414-32.264,13.414H82.224c-12.562,0-23.317-4.469-32.264-13.414
             c-8.945-8.946-13.417-19.698-13.417-32.262V155.31c0-12.562,4.471-23.313,13.417-32.259c8.947-8.947,19.702-13.418,32.264-13.418
             h200.994c2.669,0,4.859-0.859,6.57-2.57c1.711-1.713,2.566-3.9,2.566-6.567V82.221c0-2.662-0.855-4.853-2.566-6.563
             c-1.711-1.713-3.901-2.568-6.57-2.568H82.224c-22.648,0-42.016,8.042-58.102,24.125C8.042,113.297,0,132.665,0,155.313v237.542
             c0,22.647,8.042,42.018,24.123,58.095c16.086,16.084,35.454,24.13,58.102,24.13h237.543c22.647,0,42.017-8.046,58.101-24.13
             c16.085-16.077,24.127-35.447,24.127-58.095v-91.358c0-2.669-0.856-4.859-2.574-6.57
             C397.709,293.209,395.519,292.354,392.857,292.354z"/>
    <path d="M506.199,41.971c-3.617-3.617-7.905-5.424-12.85-5.424H347.171c-4.948,0-9.233,1.807-12.847,5.424
             c-3.617,3.615-5.428,7.898-5.428,12.847s1.811,9.233,5.428,12.85l50.247,50.248L198.424,304.067
             c-1.906,1.903-2.856,4.093-2.856,6.563c0,2.479,0.953,4.668,2.856,6.571l32.548,32.544c1.903,1.903,4.093,2.852,6.567,2.852
             s4.665-0.948,6.567-2.852l186.148-186.148l50.251,50.248c3.614,3.617,7.898,5.426,12.847,5.426s9.233-1.809,12.851-5.426
             c3.617-3.616,5.424-7.898,5.424-12.847V54.818C511.626,49.866,509.813,45.586,506.199,41.971z"/>
  </symbol>
  <symbol id="github" viewBox="0 0 438.549 438.549">
    <path d="M409.132,114.573c-19.608-33.596-46.205-60.194-79.798-79.8C295.736,15.166,259.057,5.365,219.271,5.365
             c-39.781,0-76.472,9.804-110.063,29.408c-33.596,19.605-60.192,46.204-79.8,79.8C9.803,148.168,0,184.854,0,224.63
             c0,47.78,13.94,90.745,41.827,128.906c27.884,38.164,63.906,64.572,108.063,79.227c5.14,0.954,8.945,0.283,11.419-1.996
             c2.475-2.282,3.711-5.14,3.711-8.562c0-0.571-0.049-5.708-0.144-15.417c-0.098-9.709-0.144-18.179-0.144-25.406l-6.567,1.136
             c-4.187,0.767-9.469,1.092-15.846,1c-6.374-0.089-12.991-0.757-19.842-1.999c-6.854-1.231-13.229-4.086-19.13-8.559
             c-5.898-4.473-10.085-10.328-12.56-17.556l-2.855-6.57c-1.903-4.374-4.899-9.233-8.992-14.559
             c-4.093-5.331-8.232-8.945-12.419-10.848l-1.999-1.431c-1.332-0.951-2.568-2.098-3.711-3.429c-1.142-1.331-1.997-2.663-2.568-3.997
             c-0.572-1.335-0.098-2.43,1.427-3.289c1.525-0.859,4.281-1.276,8.28-1.276l5.708,0.853c3.807,0.763,8.516,3.042,14.133,6.851
             c5.614,3.806,10.229,8.754,13.846,14.842c4.38,7.806,9.657,13.754,15.846,17.847c6.184,4.093,12.419,6.136,18.699,6.136
             c6.28,0,11.704-0.476,16.274-1.423c4.565-0.952,8.848-2.383,12.847-4.285c1.713-12.758,6.377-22.559,13.988-29.41
             c-10.848-1.14-20.601-2.857-29.264-5.14c-8.658-2.286-17.605-5.996-26.835-11.14c-9.235-5.137-16.896-11.516-22.985-19.126
             c-6.09-7.614-11.088-17.61-14.987-29.979c-3.901-12.374-5.852-26.648-5.852-42.826c0-23.035,7.52-42.637,22.557-58.817
             c-7.044-17.318-6.379-36.732,1.997-58.24c5.52-1.715,13.706-0.428,24.554,3.853c10.85,4.283,18.794,7.952,23.84,10.994
             c5.046,3.041,9.089,5.618,12.135,7.708c17.705-4.947,35.976-7.421,54.818-7.421s37.117,2.474,54.823,7.421l10.849-6.849
             c7.419-4.57,16.18-8.758,26.262-12.565c10.088-3.805,17.802-4.853,23.134-3.138c8.562,21.509,9.325,40.922,2.279,58.24
             c15.036,16.18,22.559,35.787,22.559,58.817c0,16.178-1.958,30.497-5.853,42.966c-3.9,12.471-8.941,22.457-15.125,29.979
             c-6.191,7.521-13.901,13.85-23.131,18.986c-9.232,5.14-18.182,8.85-26.84,11.136c-8.662,2.286-18.415,4.004-29.263,5.146
             c9.894,8.562,14.842,22.077,14.842,40.539v60.237c0,3.422,1.19,6.279,3.572,8.562c2.379,2.279,6.136,2.95,11.276,1.995
             c44.163-14.653,80.185-41.062,108.068-79.226c27.88-38.161,41.825-81.126,41.825-128.906
             C438.536,184.851,428.728,148.168,409.132,114.573z"/>
  </symbol>
</svg>
